<?xml version="1.0" encoding="utf-8"?>
<!-- Generator: Adobe Illustrator 18.0.0, SVG Export Plug-In . SVG Version: 6.00 Build 0)  -->
<!DOCTYPE svg PUBLIC "-//W3C//DTD SVG 1.1//EN" "http://www.w3.org/Graphics/SVG/1.1/DTD/svg11.dtd">
<svg version="1.1" id="Layer_1" xmlns="http://www.w3.org/2000/svg" xmlns:xlink="http://www.w3.org/1999/xlink" x="0px" y="0px"
	 viewBox="0 0 89.7 87.5" enable-background="new 0 0 89.7 87.5" xml:space="preserve">
<g>
	<path fill="#F58520" d="M74.8,23.3c1.1-0.8,2-1.7,2.9-2.7c1.3-1.4,2.3-2.9,2.9-4.7c0.1-0.2,0.3-0.5,0.1-0.8
		c-0.2-0.2-0.5,0.1-0.7,0.2c-0.3,0.1-0.6,0.3-0.8,0.4c-2.2,1.1-4.6,2-7,2.6c-0.7,0.2-1.4,0.1-2-0.4C66.5,14.4,62,13,57,13.8
		c-5.9,0.9-10,4.3-12.3,9.8c-1.1,2.7-1.4,5.5-0.9,8.4c0.1,0.7-0.1,0.9-0.8,0.9c-0.6-0.1-1.2-0.1-1.8-0.2c-5.7-0.6-11.1-2.3-16.1-5
		c-4.9-2.7-9.3-6.1-12.9-10.4c-0.6-0.8-0.9-0.7-1.3,0.2c-3,6.4-1.8,14.1,3.9,19.1c0.3,0.3,0.7,0.4,0.8,0.9c-0.2,0-0.3,0.1-0.4,0
		c-1.7-0.2-3.3-0.6-4.9-1.4c-1.1-0.5-1.2-0.5-1.1,0.7c0.4,5.4,3,9.5,7.4,12.5c1.4,0.9,2.9,1.4,4.5,2c-1.8,0.5-3.5,0.6-5.3,0.3
		c-0.3,0-0.6-0.2-0.9,0.1c-0.2,0.3,0,0.5,0.1,0.8c2.3,5.4,6.4,8.8,12.2,9.8c0.5,0.1,1.1,0.1,1.7,0.4c-6.7,5-14.2,7-22.6,6.3
		C7.2,70,8,70.3,8.7,70.7c7.6,4.1,15.7,6,24.4,5.5c4.1-0.2,8.1-0.9,11.9-2.2c6.8-2.2,12.6-6,17.6-11.2c3.2-3.4,5.8-7.1,7.9-11.2
		c3.3-6.6,5.1-13.6,4.9-21c0-1,0.3-1.6,1.1-2.2c1.3-1,2.5-2,3.6-3.2c1.1-1.2,2.2-2.5,3.2-4.2C80.3,22.2,77.7,23,74.8,23.3z"/>
	<path fill="#F58520" d="M74.8,23.3c2.8-0.2,5.5-1.1,8.4-2.2c-1,1.7-2.1,2.9-3.2,4.2c-1.1,1.2-2.3,2.3-3.6,3.2
		c-0.8,0.6-1.1,1.2-1.1,2.2c0.2,7.4-1.6,14.4-4.9,21c-2,4.1-4.7,7.8-7.9,11.2C57.7,68.1,51.8,71.8,45,74c-3.9,1.3-7.8,1.9-11.9,2.2
		c-8.7,0.5-16.8-1.4-24.4-5.5C8,70.3,7.2,70,6.5,69.2c8.4,0.7,15.8-1.3,22.6-6.3c-0.6-0.3-1.2-0.3-1.7-0.4
		c-5.9-1.1-9.9-4.4-12.2-9.8c-0.1-0.2-0.3-0.5-0.1-0.8c0.2-0.3,0.6-0.2,0.9-0.1c1.8,0.3,3.5,0.1,5.3-0.3c-1.5-0.6-3.1-1.1-4.5-2
		c-4.5-3-7.1-7.1-7.4-12.5c-0.1-1.2,0-1.2,1.1-0.7c1.6,0.7,3.2,1.1,4.9,1.4c0.1,0,0.3,0,0.4,0c-0.1-0.5-0.5-0.6-0.8-0.9
		c-5.7-5-6.9-12.7-3.9-19.1c0.4-0.9,0.6-1,1.3-0.2c3.6,4.3,7.9,7.8,12.9,10.4c5,2.7,10.4,4.4,16.1,5c0.6,0.1,1.2,0.1,1.8,0.2
		c0.7,0.1,0.9-0.2,0.8-0.9c-0.5-2.9-0.2-5.7,0.9-8.4c2.3-5.5,6.4-8.9,12.3-9.8c5-0.8,9.5,0.5,13.2,4.1c0.6,0.6,1.2,0.6,2,0.4
		c2.4-0.6,4.8-1.5,7-2.6c0.3-0.1,0.5-0.3,0.8-0.4c0.2-0.1,0.5-0.3,0.7-0.2c0.3,0.2,0,0.5-0.1,0.8c-0.7,1.7-1.7,3.3-2.9,4.7
		C76.8,21.5,75.9,22.5,74.8,23.3z"/>
</g>
</svg>
