<?xml version="1.0" encoding="utf-8"?>
<!-- Generator: Adobe Illustrator 18.0.0, SVG Export Plug-In . SVG Version: 6.00 Build 0)  -->
<!DOCTYPE svg PUBLIC "-//W3C//DTD SVG 1.1//EN" "http://www.w3.org/Graphics/SVG/1.1/DTD/svg11.dtd">
<svg version="1.1" id="Layer_1" xmlns="http://www.w3.org/2000/svg" xmlns:xlink="http://www.w3.org/1999/xlink" x="0px" y="0px"
	 viewBox="0 0 1024 1024" enable-background="new 0 0 1024 1024" xml:space="preserve">
<g>
	<circle fill="#FFFFFF" cx="567.4" cy="526.9" r="165.4"/>
	
		<rect x="161.1" y="506.1" transform="matrix(0.5415 0.8407 -0.8407 0.5415 694.098 -240.377)" fill="#FFFFFF" width="812.7" height="20"/>
	
		<rect x="334.9" y="328.5" transform="matrix(0.1429 0.9897 -0.9897 0.1429 849.8484 138.5666)" fill="#FFFFFF" width="20" height="463"/>
	
		<rect x="670.7" y="205.3" transform="matrix(0.8017 0.5978 -0.5978 0.8017 364.4261 -330.8025)" fill="#FFFFFF" width="20" height="357"/>
	
		<rect x="554.8" y="599.6" transform="matrix(0.8971 0.4419 -0.4419 0.8971 345.7577 -265.1164)" fill="#FFFFFF" width="374.4" height="20"/>
	
		<rect x="505.3" y="516.8" transform="matrix(0.9424 0.3346 -0.3346 0.9424 261.3222 -132.5082)" fill="#FFFFFF" width="20" height="351.1"/>
</g>
<path fill="#FFFFFF" d="M320.9,197.7c-39.7,0-71.1-31.4-71.1-71.1s31.4-72.8,71.1-72.8s71.1,31.4,71.1,71.1S360.6,197.7,320.9,197.7
	z M320.9,86.8c-21.5,0-38,16.5-38,38s16.5,38,38,38s38-16.5,38-38S342.4,86.8,320.9,86.8z"/>
<path fill="#FFFFFF" d="M823.8,275.4c-39.7,0-71.1-31.4-71.1-71.1s31.4-71.1,71.1-71.1c39.7,0,71.1,31.4,71.1,71.1
	S861.9,275.4,823.8,275.4z M823.8,166.3c-21.5,0-38,16.5-38,38s16.5,38,38,38c21.5,0,38-16.5,38-38S843.7,166.3,823.8,166.3z"/>
<path fill="#FFFFFF" d="M952.9,785c-39.7,0-71.1-31.4-71.1-71.1c0-39.7,31.4-71.1,71.1-71.1s71.1,31.4,71.1,71.1
	C1024,753.5,990.9,785,952.9,785z M952.9,674.1c-21.5,0-38,16.5-38,38s16.5,38,38,38c21.5,0,38-16.5,38-38S972.7,674.1,952.9,674.1z
	"/>
<path fill="#FFFFFF" d="M808.9,970.2c-39.7,0-71.1-31.4-71.1-71.1c0-39.7,31.4-71.1,71.1-71.1c39.7,0,71.1,31.4,71.1,71.1
	C880.1,938.8,848.6,970.2,808.9,970.2z M808.9,861.1c-21.5,0-38,16.5-38,38c0,21.5,16.5,38,38,38c21.5,0,38-16.5,38-38
	C847,877.6,830.4,861.1,808.9,861.1z"/>
<path fill="#FFFFFF" d="M445,970.2c-39.7,0-71.1-31.4-71.1-71.1c0-39.7,31.4-71.1,71.1-71.1s71.1,31.4,71.1,71.1
	C516.1,938.8,484.7,970.2,445,970.2z M445,861.1c-21.5,0-38,16.5-38,38c0,21.5,16.5,38,38,38s38-16.5,38-38
	C483.1,877.6,466.5,861.1,445,861.1z"/>
<path fill="#FFFFFF" d="M71.1,665.8C31.4,665.8,0,632.8,0,593.1c0-39.7,31.4-71.1,71.1-71.1s71.1,31.4,71.1,71.1
	S110.8,665.8,71.1,665.8z M71.1,555c-21.5,0-38,16.5-38,38c0,21.5,16.5,39.7,38,39.7s38-16.5,38-38C109.2,573.2,92.6,555,71.1,555z"
	/>
</svg>
