<?xml version="1.0" encoding="utf-8"?>
<!-- Generator: Adobe Illustrator 18.0.0, SVG Export Plug-In . SVG Version: 6.00 Build 0)  -->
<!DOCTYPE svg PUBLIC "-//W3C//DTD SVG 1.1//EN" "http://www.w3.org/Graphics/SVG/1.1/DTD/svg11.dtd">
<svg version="1.1" id="Layer_1" xmlns="http://www.w3.org/2000/svg" xmlns:xlink="http://www.w3.org/1999/xlink" x="0px" y="0px"
	 viewBox="0 0 2614.9 1114.2" enable-background="new 0 0 2614.9 1114.2" xml:space="preserve">
<g>
	<path fill="#8E8E8E" stroke="#8E8E8E" stroke-miterlimit="10" d="M982.5,235.1h-70.8v-9.8H1064v9.8h-70.8v217.4h-10.7V235.1z"/>
	<path fill="#8E8E8E" stroke="#8E8E8E" stroke-miterlimit="10" d="M1271.9,255.7c17.7-23.6,43.3-35.4,76.8-35.4
		c33.7,0,59.4,11.7,77.1,35.1c15.8,21.3,23.7,49.2,23.7,83.7c0,34.8-7.9,62.6-23.7,83.4c-17.7,23.2-43.4,34.8-77.1,34.8
		c-33.7,0-59.3-11.6-76.8-34.8c-15.8-20.9-23.7-48.7-23.7-83.4C1248.2,304.8,1256.1,277,1271.9,255.7z M1279.8,415.2
		c15.6,21.9,38.5,32.9,68.9,32.9c30.5,0,53.6-10.9,69.2-32.9c13.7-19.2,20.5-44.5,20.5-76.1c0-31.4-7-56.8-20.9-76.1
		c-15.8-22.1-38.8-33.2-68.9-33.2c-30.1,0-53.1,11.1-68.9,33.2c-13.7,19.4-20.5,44.8-20.5,76.1
		C1259.3,370.5,1266.1,395.8,1279.8,415.2z"/>
	<path fill="#8E8E8E" stroke="#8E8E8E" stroke-miterlimit="10" d="M1656.1,225.3h15.2l82.8,159.9l79.6-159.9h14.8v227.2h-9.5V238.6
		l-82.1,159.5h-6.3l-85-159.5v213.9h-9.5V225.3z"/>
	<path fill="#8E8E8E" stroke="#8E8E8E" stroke-miterlimit="10" d="M2064.6,225.3h15.2l82.8,159.9l79.6-159.9h14.8v227.2h-9.5V238.6
		l-82.1,159.5h-6.3l-85-159.5v213.9h-9.5V225.3z"/>
	<path fill="#8E8E8E" stroke="#8E8E8E" stroke-miterlimit="10" d="M2525.5,352l-78-126.7h12l71.7,115.9l70.8-115.9h12l-78,127.3
		v99.8h-10.4V352z"/>
	<path fill="#8E8E8E" stroke="#8E8E8E" stroke-miterlimit="10" d="M982.5,614.3h-70.8v-9.8H1064v9.8h-70.8v217.4h-10.7V614.3z"/>
	<path fill="#8E8E8E" stroke="#8E8E8E" stroke-miterlimit="10" d="M1356.9,604.5h12l86.2,227.2h-10.4l-29.4-77.4h-105.8l-29.7,77.4
		h-10.4L1356.9,604.5z M1411.6,744.7l-48.7-128l-49.6,128H1411.6z"/>
	<path fill="#8E8E8E" stroke="#8E8E8E" stroke-miterlimit="10" d="M1693.4,604.5h10.7v217h120.4v10.1h-131.1V604.5z"/>
	<path fill="#8E8E8E" stroke="#8E8E8E" stroke-miterlimit="10" d="M2068.7,604.5h10.7v127.9l126.1-127.9h13.6l-89.7,91l103.3,136.2
		H2220l-97.6-128.9l-43,43.6v85.3h-10.7V604.5z"/>
	<path fill="#8E8E8E" stroke="#8E8E8E" stroke-miterlimit="10" d="M2466.1,762.4c1.3,19.8,7.7,35.5,19.4,47.2
		c11.7,11.7,27.6,17.5,47.9,17.5c17.7,0,32.4-4.4,44.2-13.3c13.5-9.7,20.2-23,20.2-39.8c0-17.5-7.1-30.6-21.2-39.5
		c-7-4.6-22.1-10.1-45.5-16.4c-0.2-0.2-1.6-0.6-4.1-1.3c-26.1-7.4-42.7-14.2-49.6-20.5c-10.7-9.7-16.1-22.2-16.1-37.6
		c0-19.4,6.7-34.2,20.2-44.5c12.4-9.9,28.4-14.8,48-14.8c21.3,0,38.3,5.8,51.2,17.4c13.3,11.6,20.4,28,21.5,49.3h-10.1
		c-0.4-18.3-6.6-32.6-18.6-43c-11.6-9.9-26.4-14.8-44.5-14.8c-16.9,0-30.4,4.2-40.8,12.6c-11.2,8.8-16.7,21.5-16.7,37.9
		c0,11.8,4.6,22,13.9,30.6c7,6.3,21.9,12.4,44.9,18.3c0.4,0.2,1,0.4,1.7,0.5c0.7,0.1,1.6,0.4,2.7,0.8c24.2,6.5,40.9,12.6,49.9,18.3
		c16,10.3,24,25,24,43.9c0,21.1-7.5,37.5-22.4,49.3c-13.7,10.5-31.4,15.8-53.1,15.8c-23,0-41.2-6.6-54.7-19.9
		c-13.7-12.8-21.3-30.9-22.7-54H2466.1z"/>
</g>
<line fill="none" stroke="#F6851F" stroke-width="16" stroke-miterlimit="10" x1="741.7" y1="0" x2="741.7" y2="1114.2"/>
<polygon fill="#F6851F" points="184.2,840.6 345,800.2 345,821.2 184.2,861.7 "/>
<polygon fill="#F6851F" points="184.2,883.8 345,843.1 345,867 184.2,906.1 "/>
<polygon fill="#F6851F" points="184.2,927.5 345,886.9 345,910.7 184.2,949.8 "/>
<g>
	<path fill="#F6851F" d="M195.8,484.5c0.9,0.8,2.2,2.1,5.6,6.7c5.9,8.1,20.5,15.4,23.3,16.8l82.4-0.6c2.7-1.4,16.2-8.4,20.7-16.3
		l0.2-0.4l0.4-0.3c0.1,0,6.5-5.2,7.9-13.1c0.8-4.2,1.2-7,1.4-8.8l-39.7,0.2l0.6-25.7l38.6-0.3l-0.1-13.5l-38.6,0.3l-0.2-22.9
		l38.7-0.3l-0.1-10.1l-36.9,0.3l-0.9-24.6l39.3-0.3l-0.1-12.4l-39.2,0.3l-0.2-24.1l39.2-0.3l-0.1-14.1l-38.6,0.3l-0.9-21.8l37.5-0.3
		c-1.7-6.6-6-22.2-11.1-31.7c-5.8-10.8-20.9-14.3-22.9-14.7l-74.4,0.5c-6.3,2.1-22.2,8.6-26.2,15.2c-4.2,6.7-7.7,24.7-9,31.7
		l36.6,0.4l-0.6,22.9l-35.8-0.3l-0.3,12.9l36.8-0.3l0.9,24.1l-38.7-0.3l0.5,11.9l38.2,0.9l0.2,24.6l-38.2-0.9l-0.3,10.6l37,0.3
		l0.2,22.3l-36.3,0.3l0.1,13l36.1,0.8l0.9,25.7l-39,0.3c-0.1,2.2,0.2,6,2.3,10.5C194.9,483.7,195.1,483.9,195.8,484.5z"/>
	<path fill="#F6851F" d="M264.6,100.7C118.5,100.7,0,227.8,0,384.5c0,101.1,49.3,189.9,123.6,240.2c0.2,0.8,1,1.7,2.4,2.6
		C160.9,650,190,822.6,190,822.6l45.3-11.3l0.3-213.9l-1.8,0l0-5l1.9,0l0-0.3l5,0l0,0.3l45.6-0.4v-0.4h5v0.3l1.8,0l0,5l-1.9,0v200.4
		l61.1-15.2c0,0,12.5-118,46.8-153.2c77.9-49.4,130.1-140.4,130.1-244.4C529.3,227.8,410.8,100.7,264.6,100.7z M186.1,466.4l0.4-2
		l38.1-0.3l-0.6-15.8l-36.3-0.8l-0.1-22.9l36.3-0.3l-0.1-12.4l-37.1-0.3l0.6-20.7l38,0.9l-0.1-14.6l-38-0.8l-0.8-21.9l38.7,0.3
		l-0.5-14l-37.1,0.3l0.6-23l35.8,0.3l0.3-12.9l-37.4-0.4l0.5-2.9c0.2-1.1,4.5-27.2,10.2-36.4c6-9.6,28.3-17.1,29.3-17.4l0.4-0.1
		l75.7-0.5l0.2,0c0.8,0.1,19.3,3.7,26.6,17.3c6.9,12.9,12.1,35.1,12.3,36l0.7,3l-38.7,0.3l0.5,11.8l38.7-0.3l0.2,24.1l-39.2,0.3
		l0.1,14.1l39.2-0.3l0.1,22.4l-39.2,0.3l0.5,14.6l37-0.3l0.1,20.1l-38.7,0.3l0.1,12.9l38.6-0.3l0.2,23.5l-38.7,0.3l-0.3,15.7
		l39.8-0.2l0,2.5c0,0.3-0.1,3.3-1.7,12.2c-1.6,8.7-7.8,14.4-9.4,15.8c-6.1,9.9-22.5,17.8-23.2,18.1l-0.5,0.2l-84.7,0.6l-0.5-0.2
		c-0.8-0.3-18.5-8.6-25.8-18.6c-3-4.2-4.2-5.3-4.9-6c-1.3-1.2-1.8-1.8-3.8-6.2C184.6,473.5,186,466.7,186.1,466.4z M305.2,579.1
		h-85.7v-5h85.7V579.1z M377.2,510l-58.2,46.4H202.3l-51.4-46.5l0.4-144.9l5,0l-0.4,142.7l48.3,43.8h57.9v-27.1h5v27.1h50.2
		l54.9-43.9l1.1-142.6l5,0L377.2,510z"/>
	<polygon fill="#F6851F" points="286.2,597 240.6,597.4 240.3,810.1 286.2,798.6 	"/>
</g>
</svg>
