<?xml version="1.0" encoding="utf-8"?>
<!-- Generator: Adobe Illustrator 18.0.0, SVG Export Plug-In . SVG Version: 6.00 Build 0)  -->
<!DOCTYPE svg PUBLIC "-//W3C//DTD SVG 1.1//EN" "http://www.w3.org/Graphics/SVG/1.1/DTD/svg11.dtd">
<svg version="1.1" id="Layer_1" xmlns="http://www.w3.org/2000/svg" xmlns:xlink="http://www.w3.org/1999/xlink" x="0px" y="0px"
	 viewBox="0 0 89.7 87.5" enable-background="new 0 0 89.7 87.5" xml:space="preserve">
<g>
	<path fill="#F58520" d="M12.3,43.8c0,9.6,0,19.2,0,28.8c0,2.2,1.4,3.7,3.6,3.7c10.1,0,20.1,0,30.2,0c0.7,0,1.1-0.3,1-1
		c0-7.8,0-15.6,0-23.4c0-0.7-0.3-1-1-0.9c-2,0-4,0-6,0c-1.1,0-1.4-0.3-1.4-1.4c0-1.3,0.1-2.5,0.1-3.8c0-1.1-0.2-2.1-0.1-3.2
		c0-1,0.2-1.2,1.2-1.2c1.9,0,3.7,0,5.6,0c1.5,0,1.6-0.2,1.7-1.7c0.1-2.6-0.2-5.2,0.2-7.8c0.3-2.7,1.2-5.2,3.1-7.2
		c2.4-2.5,5.5-3.4,8.8-3.5c2.3-0.1,4.5,0.1,6.8,0.3c0.7,0,1,0.3,1,1c0,2.2,0,4.3,0,6.5c0,1-0.1,1-1.1,1.1c-1.8,0-3.6-0.1-5.4,0.1
		C58.3,30.7,57,32,57,34.2c0,2.1,0,4.1,0,6.2c0,0.7,0.3,1,1,1c2.4,0,4.8,0,7.2,0c1.3,0,1.4,0.2,1.3,1.4c-0.3,2.3-0.6,4.5-0.9,6.8
		c-0.1,1.1-0.3,1.3-1.5,1.3c-2,0-4,0-6,0c-1,0-1.1,0.1-1.1,1.1c0,7.7,0,15.4,0,23c0,1.1,0.1,1.1,1.1,1.1c2.8,0,5.6,0,8.3,0
		c2.4,0,4.7,0,7.1,0c2,0,3.4-1.2,3.6-3c0.1-0.9,0.2-1.7,0.2-2.6c-0.1-5.5,0-11-0.1-16.5c-0.1-5,0-10,0.1-15c0.1-7.8,0-15.7,0-23.5
		c0-2.8-1.6-4.4-4.4-4.4c-3.2,0-6.4,0.1-9.6,0.1c-4.4,0.1-8.9,0-13.3-0.1c-2.3-0.1-4.6,0-6.9,0c-8.8,0-17.5,0-26.3,0
		c-3.1,0-4.4,1.3-4.4,4.4C12.3,25,12.3,34.4,12.3,43.8z"/>
	<path fill="#F58520" d="M12.3,43.8c0-9.4,0-18.7,0-28.1c0-3.1,1.3-4.4,4.4-4.4c8.8,0,17.5,0,26.3,0c2.3,0,4.6-0.1,6.9,0
		c4.4,0.2,8.9,0.2,13.3,0.1c3.2,0,6.4-0.1,9.6-0.1c2.8,0,4.4,1.6,4.4,4.4c0,7.8,0.1,15.7,0,23.5c-0.1,5-0.2,10-0.1,15
		c0.1,5.5,0,11,0.1,16.5c0,0.9-0.1,1.7-0.2,2.6c-0.2,1.8-1.6,2.9-3.6,3c-2.4,0-4.7,0-7.1,0c-2.8,0-5.6,0-8.3,0c-1,0-1.1-0.1-1.1-1.1
		c0-7.7,0-15.4,0-23c0-1,0.1-1.1,1.1-1.1c2,0,4,0,6,0c1.1,0,1.3-0.2,1.5-1.3c0.3-2.3,0.6-4.5,0.9-6.8c0.2-1.3,0-1.4-1.3-1.4
		c-2.4,0-4.8,0-7.2,0c-0.8,0-1-0.3-1-1c0-2.1,0-4.1,0-6.2c0-2.2,1.3-3.6,3.5-3.9c1.8-0.3,3.6-0.1,5.4-0.1c1,0,1.1-0.1,1.1-1.1
		c0-2.2,0-4.3,0-6.5c0-0.7-0.2-1-1-1c-2.3-0.1-4.5-0.4-6.8-0.3c-3.4,0.1-6.4,1-8.9,3.5c-1.9,2-2.8,4.5-3.1,7.2
		c-0.3,2.6-0.1,5.2-0.2,7.8c0,1.5-0.2,1.6-1.7,1.7c-1.9,0-3.7,0-5.6,0c-1,0-1.2,0.2-1.2,1.2c-0.1,1.1,0.1,2.1,0.1,3.2
		c0,1.3-0.1,2.5-0.1,3.8c0,1.1,0.3,1.4,1.4,1.4c2,0,4,0,6,0c0.7,0,1,0.2,1,0.9c0,7.8,0,15.6,0,23.4c0,0.7-0.3,1-1,1
		c-10.1,0-20.1,0-30.2,0c-2.2,0-3.6-1.5-3.6-3.7C12.3,63,12.3,53.4,12.3,43.8z"/>
</g>
</svg>
