<?xml version="1.0" encoding="utf-8"?>
<!-- Generator: Adobe Illustrator 18.0.0, SVG Export Plug-In . SVG Version: 6.00 Build 0)  -->
<!DOCTYPE svg PUBLIC "-//W3C//DTD SVG 1.1//EN" "http://www.w3.org/Graphics/SVG/1.1/DTD/svg11.dtd">
<svg version="1.1" id="Layer_1" xmlns="http://www.w3.org/2000/svg" xmlns:xlink="http://www.w3.org/1999/xlink" x="0px" y="0px"
	 viewBox="0 0 89.7 87.5" enable-background="new 0 0 89.7 87.5" xml:space="preserve">
<path fill="#F58520" d="M78.9,18.1c0-4.7-3.5-8.5-8.5-8.4c-8.5,0.2-17.1,0.1-25.6,0.1c-8.5,0-17.1,0-25.6,0c-1,0-2,0-2.9,0.3
	c-3.6,1-5.6,3.8-5.6,8.1c0,17.1,0,34.2,0,51.4c0,5.2,3.3,8.4,8.5,8.4c17,0,34,0,51.1,0c5.3,0,8.6-3.2,8.6-8.6
	C78.9,52.2,78.8,35.1,78.9,18.1z M44.8,30.7c7.1,0,12.9,5.8,13,12.9C58,50.8,52,56.8,44.6,56.8c-7,0-12.9-5.8-12.9-13
	C31.7,35.7,38.7,30.2,44.8,30.7z M70.9,40.4c0,8.7,0,17.4,0,26.1c0,2.5-0.9,3.4-3.4,3.4c-15.1,0-30.2,0-45.4,0
	c-2.5,0-3.4-0.9-3.4-3.4c0-8.7,0-17.5,0-26.2c0-0.5,0-1,0-1.6c2,0,3.7,0,5.6,0c-1.4,8.1,0.3,15.1,6.4,20.7c4.4,4,9.6,5.7,15.5,5.3
	c6.5-0.4,11.6-3.4,15.5-8.6c3.9-5.2,4.6-11.1,3.5-17.4c1.9,0,3.6,0,5.6,0C70.9,39.3,70.9,39.9,70.9,40.4z M70.9,27.8
	c0,1.6-1.1,2.8-2.6,2.8c-2.5,0.1-5.1,0.1-7.6,0c-1.5,0-2.7-1.2-2.7-2.7c-0.1-2.5-0.1-5.1,0-7.6c0-1.7,1.2-2.7,2.9-2.7
	c2.4,0,4.9,0,7.3,0c1.7,0,2.7,1.1,2.7,2.8c0,1.2,0,2.4,0,3.7c0,0,0,0,0,0C70.9,25.3,70.9,26.5,70.9,27.8z"/>
</svg>
