<?xml version="1.0" encoding="utf-8"?>
<!-- Generator: Adobe Illustrator 18.0.0, SVG Export Plug-In . SVG Version: 6.00 Build 0)  -->
<!DOCTYPE svg PUBLIC "-//W3C//DTD SVG 1.1//EN" "http://www.w3.org/Graphics/SVG/1.1/DTD/svg11.dtd">
<svg version="1.1" id="Layer_1" xmlns="http://www.w3.org/2000/svg" xmlns:xlink="http://www.w3.org/1999/xlink" x="0px" y="0px"
	 viewBox="0 0 1024 1024" enable-background="new 0 0 1024 1024" xml:space="preserve">
<g>
	<path fill="#F58520" d="M863.9,278.5c12.6-9.1,22.8-19.4,33.1-30.8c14.8-16,26.3-33.1,33.1-53.7c1.1-2.3,3.4-5.7,1.1-9.1
		c-2.3-2.3-5.7,1.1-8,2.3c-3.4,1.1-6.8,3.4-9.1,4.6c-25.1,12.6-52.5,22.8-79.9,29.7c-8,2.3-16,1.1-22.8-4.6
		c-42.2-40-93.6-55.9-150.7-46.8c-67.4,10.3-114.2,49.1-140.4,111.9c-12.6,30.8-16,62.8-10.3,95.9c1.1,8-1.1,10.3-9.1,10.3
		c-6.8-1.1-13.7-1.1-20.5-2.3c-65.1-6.8-126.7-26.3-183.8-57.1c-55.9-30.8-106.2-69.6-147.3-118.7c-6.8-9.1-10.3-8-14.8,2.3
		c-34.2,73.1-20.5,161,44.5,218c3.4,3.4,8,4.6,9.1,10.3c-2.3,0-3.4,1.1-4.6,0c-19.4-2.3-37.7-6.8-55.9-16c-12.6-5.7-13.7-5.7-12.6,8
		c4.6,61.6,34.2,108.5,84.5,142.7c16,10.3,33.1,16,51.4,22.8c-20.5,5.7-40,6.8-60.5,3.4c-3.4,0-6.8-2.3-10.3,1.1
		c-2.3,3.4,0,5.7,1.1,9.1c26.3,61.6,73.1,100.5,139.3,111.9c5.7,1.1,12.6,1.1,19.4,4.6c-76.5,57.1-162.1,79.9-258,71.9
		c10.3,11.4,19.4,14.8,27.4,19.4c86.8,46.8,179.2,68.5,278.5,62.8c46.8-2.3,92.5-10.3,135.8-25.1c77.6-25.1,143.8-68.5,200.9-127.9
		c36.5-38.8,66.2-81.1,90.2-127.9c37.7-75.3,58.2-155.3,55.9-239.7c0-11.4,3.4-18.3,12.6-25.1c14.8-11.4,28.5-22.8,41.1-36.5
		s25.1-28.5,36.5-47.9C926.7,266,897,275.1,863.9,278.5z"/>
	<path fill="#F58520" d="M863.9,278.5c32-2.3,62.8-12.6,95.9-25.1c-11.4,19.4-24,33.1-36.5,47.9c-12.6,13.7-26.3,26.3-41.1,36.5
		c-9.1,6.8-12.6,13.7-12.6,25.1c2.3,84.5-18.3,164.4-55.9,239.7c-22.8,46.8-53.7,89-90.2,127.9C668.7,790,601.3,832.2,523.7,857.3
		c-44.5,14.8-89,21.7-135.8,25.1c-99.3,5.7-191.8-16-278.5-62.8c-8-4.6-17.1-8-25.1-17.1c95.9,8,180.4-14.8,258-71.9
		c-6.8-3.4-13.7-3.4-19.4-4.6c-67.4-12.6-113-50.2-139.3-111.9c-1.1-2.3-3.4-5.7-1.1-9.1c2.3-3.4,6.8-2.3,10.3-1.1
		c20.5,3.4,40,1.1,60.5-3.4c-17.1-6.8-35.4-12.6-51.4-22.8c-51.4-34.2-81.1-81.1-84.5-142.7c-1.1-13.7,0-13.7,12.6-8
		c18.3,8,36.5,12.6,55.9,16c1.1,0,3.4,0,4.6,0c-1.1-5.7-5.7-6.8-9.1-10.3c-65.1-57.1-78.8-145-44.5-218c4.6-10.3,6.8-11.4,14.8-2.3
		c41.1,49.1,90.2,89,147.3,118.7c57.1,30.8,118.7,50.2,183.8,57.1c6.8,1.1,13.7,1.1,20.5,2.3c8,1.1,10.3-2.3,9.1-10.3
		c-5.7-33.1-2.3-65.1,10.3-95.9c26.3-62.8,73.1-101.6,140.4-111.9c57.1-9.1,108.5,5.7,150.7,46.8c6.8,6.8,13.7,6.8,22.8,4.6
		c27.4-6.8,54.8-17.1,79.9-29.7c3.4-1.1,5.7-3.4,9.1-4.6c2.3-1.1,5.7-3.4,8-2.3c3.4,2.3,0,5.7-1.1,9.1c-8,19.4-19.4,37.7-33.1,53.7
		C886.7,258,876.5,269.4,863.9,278.5z"/>
</g>
</svg>
