<?xml version="1.0" encoding="utf-8"?>
<!-- Generator: Adobe Illustrator 18.0.0, SVG Export Plug-In . SVG Version: 6.00 Build 0)  -->
<!DOCTYPE svg PUBLIC "-//W3C//DTD SVG 1.1//EN" "http://www.w3.org/Graphics/SVG/1.1/DTD/svg11.dtd">
<svg version="1.1"
	 id="svg11927" sodipodi:docname="New document 9" inkscape:version="0.48.4 r9939" xmlns:dc="http://purl.org/dc/elements/1.1/" xmlns:sodipodi="http://sodipodi.sourceforge.net/DTD/sodipodi-0.dtd" xmlns:rdf="http://www.w3.org/1999/02/22-rdf-syntax-ns#" xmlns:svg="http://www.w3.org/2000/svg" xmlns:cc="http://creativecommons.org/ns#" xmlns:inkscape="http://www.inkscape.org/namespaces/inkscape"
	 xmlns="http://www.w3.org/2000/svg" xmlns:xlink="http://www.w3.org/1999/xlink" x="0px" y="0px" viewBox="0 0 1024 1024"
	 enable-background="new 0 0 1024 1024" xml:space="preserve">
<sodipodi:namedview  inkscape:pageopacity="0.0" fit-margin-bottom="0" inkscape:window-width="1680" inkscape:pageshadow="2" inkscape:window-height="988" inkscape:window-x="-8" inkscape:window-y="-8" inkscape:window-maximized="1" fit-margin-right="0" inkscape:current-layer="layer1" inkscape:document-units="mm" showgrid="false" borderlayer="false" units="mm" inkscape:cy="45.260689" inkscape:zoom="1.979899" pagecolor="#ffffff" id="base" fit-margin-top="0" bordercolor="#666666" borderopacity="1.0" inkscape:cx="171.00263" fit-margin-left="0">
	</sodipodi:namedview>
<path id="path11905" inkscape:connector-curvature="0" sodipodi:nodetypes="cssscccscccccc" fill="#F58520" d="M162.4,829.9
	c-88.1-18.3-110.7-80.4-111.2-307C50.7,362.6,57.5,308.2,84,255.7c20.7-40.9,45.2-53.4,116.9-61.1c69.8-7.2,440.3-7.7,587.6-0.5
	c205.5,13,181.9,109.2,184.3,299.8c2.4,197.3-2.9,240.6-36.1,290.7c-32.7,50.1-20.2,48.1-401.8,50.1
	C340.5,835.6,179.7,833.7,162.4,829.9L162.4,829.9z M662.4,510.3C576.3,453,484.4,392.4,437.7,364c1.9,79.9,0.5,225.7,1.4,297.4
	C507.5,619.1,611.4,548.3,662.4,510.3L662.4,510.3z"/>
</svg>
