<?xml version="1.0" encoding="utf-8"?>
<!-- Generator: Adobe Illustrator 18.0.0, SVG Export Plug-In . SVG Version: 6.00 Build 0)  -->
<!DOCTYPE svg PUBLIC "-//W3C//DTD SVG 1.1//EN" "http://www.w3.org/Graphics/SVG/1.1/DTD/svg11.dtd">
<svg version="1.1" id="Layer_1" xmlns="http://www.w3.org/2000/svg" xmlns:xlink="http://www.w3.org/1999/xlink" x="0px" y="0px"
	 viewBox="0 0 1024 1024" enable-background="new 0 0 1024 1024" xml:space="preserve">
<path fill="#FFFFFF" d="M422,871.9l196.6-48.2c0,0,16.7-152.1,61.2-189.2s-376.6-26-333.9,1.9C386.8,664.1,422,871.9,422,871.9z"/>
<path fill="#FFFFFF" d="M832,343.2c0,189.2-142.8,343.2-319.1,343.2c-61.2,0-116.9-18.6-165.1-50.1C253.2,575.1,192,467.5,192,343.2
	C192,154,334.8,0,511.1,0C689.2,0,832,154,832,343.2z"/>
<polygon fill="#FFFFFF" points="425.7,892.3 620.5,844.1 620.5,868.2 425.7,918.3 "/>
<polygon fill="#FFFFFF" points="425.7,944.2 620.5,896 620.5,923.8 425.7,972.1 "/>
<polygon fill="#FFFFFF" points="425.7,998 620.5,947.9 620.5,977.6 425.7,1024 "/>
</svg>
